<?xml version="1.0" encoding="UTF-8"?>
<svg width="114.38" height="35" version="1.1" viewBox="0 0 85.785 26.25" xmlns="http://www.w3.org/2000/svg" xmlns:cc="http://creativecommons.org/ns#" xmlns:dc="http://purl.org/dc/elements/1.1/" xmlns:rdf="http://www.w3.org/1999/02/22-rdf-syntax-ns#">
 <metadata>
  <rdf:RDF>
   <cc:Work rdf:about="">
    <dc:format>image/svg+xml</dc:format>
    <dc:type rdf:resource="http://purl.org/dc/dcmitype/StillImage"/>
    <dc:title/>
   </cc:Work>
  </rdf:RDF>
 </metadata>
 <g transform="translate(-173.88 -263.03)">
  <g transform="matrix(.42505 0 0 .42505 78.134 138.64)" stroke-width="1.7645">
   <g fill="#0f0">
    <path d="m238.75 342.31q-4.032 0-7.104-1.408t-4.736-3.904q-1.664-2.56-1.664-5.888 0-2.816 1.152-5.12 1.216-2.304 3.2-3.648 2.048-1.344 4.48-1.344 2.24 0 3.776 1.152 1.536 1.088 1.92 3.072-3.328 0-5.312 1.792-1.984 1.728-1.984 4.736 0 2.752 1.664 4.416t4.416 1.664q3.392 0 5.568-2.24 2.24-2.304 2.24-5.76 0-3.008-1.664-5.696t-4.992-6.528q-3.456-3.968-5.248-6.784-1.728-2.88-1.728-6.272 0-3.328 1.856-5.952 1.856-2.688 5.12-4.224t7.36-1.536q5.184 0 8.256 2.432 3.136 2.432 3.136 6.528 0 2.688-1.344 4.352t-3.52 1.664q-2.432 0-3.904-1.984 1.216-0.896 1.92-2.368t0.704-3.072q0-2.048-1.216-3.264t-3.328-1.216q-2.56 0-4.224 1.856-1.6 1.792-1.6 4.608 0 2.56 1.472 4.8 1.472 2.176 4.608 5.632 2.56 2.752 4.096 4.736 1.6 1.984 2.688 4.608 1.152 2.56 1.152 5.568 0 4.096-2.304 7.424-2.24 3.328-6.208 5.248-3.904 1.92-8.704 1.92z"/>
    <path d="m271.45 297.44q-4.544 1.728-7.04 5.376-2.496 3.584-2.496 8.832 0 2.368 0.448 3.328 0.448 0.896 0.448 1.024-3.456 0-5.184-1.408-1.664-1.472-1.664-4.8 0-4.096 3.328-7.936 3.392-3.904 8.64-6.272 5.248-2.432 10.496-2.432 0.896 0 2.56 0.128l0.576 39.36 13.44-39.168h4.48l-17.792 47.68h-9.216z"/>
    <path d="m305.75 354.4q-4.672 0-7.552-2.432-2.816-2.368-2.816-6.272 0-2.432 1.152-4.48t3.136-3.2q1.984-1.216 4.352-1.216 2.432 0 3.904 1.216 1.536 1.216 1.536 3.2 0 1.536-0.704 2.432-0.576-0.768-1.6-1.216-0.96-0.448-2.048-0.448-1.92 0-3.136 1.28t-1.216 3.328 1.152 3.328q1.216 1.28 3.008 1.28 2.24 0 3.84-1.984t2.432-5.888l3.2-14.144h-0.256q-1.728 2.432-4.224 3.712-2.432 1.28-5.376 1.28-3.712 0-6.528-1.984t-4.352-5.632q-1.472-3.712-1.472-8.576 0-7.04 3.072-12.8 3.072-5.824 8.448-9.152t11.84-3.328q5.44 0 8.576 2.368 3.2 2.368 3.2 6.464 0 2.752-1.344 4.416t-3.52 1.664q-1.216 0-2.304-0.512-1.024-0.512-1.728-1.472 1.152-0.768 1.92-2.432 0.832-1.728 0.832-3.456 0-1.92-1.152-2.944-1.088-1.088-3.136-1.088-3.712 0-7.168 3.328-3.456 3.264-5.568 8.576t-2.112 11.136q0 4.8 1.536 7.36 1.536 2.496 4.416 2.496 3.456 0 6.08-3.648 2.688-3.648 4.288-10.624l7.552 0.064-4.672 21.504q-2.048 9.536-5.824 14.016-3.712 4.48-9.664 4.48z"/>
   </g>
   <path d="m344.78 348.42v-13.355h-24.198v-6.2778l25.454-36.145h5.5929v36.145h7.5334v6.2778h-7.5334v13.355zm0-19.632v-25.149l-17.464 25.149z" fill="#fff"/>
   <g fill="#f00">
    <path d="m358.97 348.4v-19.802h14.127v3.3498h-9.9663v4.6871h8.6028v3.3498h-8.6028v8.4151z"/>
    <path d="m374.83 348.4v-19.802h8.7574q3.3034 0 4.7934 0.54029 1.5041 0.52679 2.4037 1.891t0.89964 3.1202q0 2.2287-1.3635 3.6875-1.3635 1.4453-4.0765 1.8235 1.3495 0.75642 2.221 1.6614 0.88558 0.90499 2.3756 3.2148l2.5162 3.8631h-4.9761l-3.0082-4.3089q-1.6025-2.3098-2.1929-2.9041-0.59039-0.60783-1.2511-0.82395-0.66067-0.22963-2.0945-0.22963h-0.84342v8.2665zm4.1608-11.427h3.0785q2.9941 0 3.7391-0.24313 0.74502-0.24314 1.1667-0.83746 0.42171-0.59432 0.42171-1.4858 0-0.99955-0.56227-1.6074-0.54822-0.62135-1.5603-0.78344-0.50604-0.0675-3.0363-0.0675h-3.2471z"/>
    <path d="m393.9 348.4v-19.802h15.28v3.3498h-11.119v4.3899h10.346v3.3363h-10.346v5.3895h11.513v3.3363z"/>
    <path d="m411.4 348.4v-19.802h15.28v3.3498h-11.119v4.3899h10.346v3.3363h-10.346v5.3895h11.513v3.3363z"/>
   </g>
  </g>
 </g>
</svg>
